<?xml version="1.0" encoding="UTF-8" standalone="no"?><svg xmlns="http://www.w3.org/2000/svg" xmlns:xlink="http://www.w3.org/1999/xlink" contentScriptType="text/ecmascript" zoomAndPan="magnify" contentStyleType="text/css" stroke="#000000" stroke-linecap="square" version="1" width="622" stroke-miterlimit="10" fill="#000000" preserveAspectRatio="xMidYMid meet" viewBox="0 0 622 802" height="802"><defs><clipPath id="a"><path d="M5 5V797H617V5Z"/></clipPath><clipPath id="b" clip-path="url(#a)"><path d="M5 797H617V5H5Z"/></clipPath><clipPath id="C" clip-path="url(#b)"><path d="M5 797H617V5H5Z"/></clipPath><clipPath id="c"><path d="M5 5V797H617V5Z"/></clipPath><clipPath id="D" clip-path="url(#c)"><path d="M5 797H617V5H5Z"/></clipPath><clipPath id="d"><path d="M5 5V797H617V5Z"/></clipPath><clipPath id="e" clip-path="url(#d)"><path d="M5 797H617V5H5Z"/></clipPath><clipPath id="E" clip-path="url(#e)"><path d="M5 797H617V5H5Z"/></clipPath><clipPath id="f"><path d="M5 5V797H617V5Z"/></clipPath><clipPath id="F" clip-path="url(#f)"><path d="M5 797H617V5H5Z"/></clipPath><clipPath id="g"><path d="M5 5V797H617V5Z"/></clipPath><clipPath id="h" clip-path="url(#g)"><path d="M5 797H617V5H5Z"/></clipPath><clipPath id="G" clip-path="url(#h)"><path d="M5 797H617V5H5Z"/></clipPath><clipPath id="i"><path d="M5 5V797H617V5Z"/></clipPath><clipPath id="H" clip-path="url(#i)"><path d="M5 797H617V5H5Z"/></clipPath><clipPath id="j"><path d="M5 5V797H617V5Z"/></clipPath><clipPath id="k" clip-path="url(#j)"><path d="M5 797H617V5H5Z"/></clipPath><clipPath id="I" clip-path="url(#k)"><path d="M5 797H617V5H5Z"/></clipPath><clipPath id="l"><path d="M5 5V797H617V5Z"/></clipPath><clipPath id="J" clip-path="url(#l)"><path d="M5 797H617V5H5Z"/></clipPath><clipPath id="m"><path d="M5 5V797H617V5Z"/></clipPath><clipPath id="n" clip-path="url(#m)"><path d="M5 797H617V5H5Z"/></clipPath><clipPath id="K" clip-path="url(#n)"><path d="M5 797H617V5H5Z"/></clipPath><clipPath id="o"><path d="M5 5V797H617V5Z"/></clipPath><clipPath id="L" clip-path="url(#o)"><path d="M5 797H617V5H5Z"/></clipPath><clipPath id="p"><path d="M5 5V797H617V5Z"/></clipPath><clipPath id="q" clip-path="url(#p)"><path d="M5 797H617V5H5Z"/></clipPath><clipPath id="M" clip-path="url(#q)"><path d="M5 797H617V5H5Z"/></clipPath><clipPath id="r"><path d="M5 5V797H617V5Z"/></clipPath><clipPath id="N" clip-path="url(#r)"><path d="M5 797H617V5H5Z"/></clipPath><clipPath id="s"><path d="M5 5V797H617V5Z"/></clipPath><clipPath id="t" clip-path="url(#s)"><path d="M5 797H617V5H5Z"/></clipPath><clipPath id="O" clip-path="url(#t)"><path d="M5 797H617V5H5Z"/></clipPath><clipPath id="u"><path d="M5 5V797H617V5Z"/></clipPath><clipPath id="P" clip-path="url(#u)"><path d="M5 797H617V5H5Z"/></clipPath><clipPath id="v"><path d="M5 5V797H617V5Z"/></clipPath><clipPath id="w" clip-path="url(#v)"><path d="M5 797H617V5H5Z"/></clipPath><clipPath id="Q" clip-path="url(#w)"><path d="M5 797H617V5H5Z"/></clipPath><clipPath id="x"><path d="M5 5V797H617V5Z"/></clipPath><clipPath id="R" clip-path="url(#x)"><path d="M5 797H617V5H5Z"/></clipPath><clipPath id="y"><path d="M5 5V797H617V5Z"/></clipPath><clipPath id="z" clip-path="url(#y)"><path d="M5 797H617V5H5Z"/></clipPath><clipPath id="S" clip-path="url(#z)"><path d="M5 797H617V5H5Z"/></clipPath><clipPath id="A"><path d="M5 5V797H617V5Z"/></clipPath><clipPath id="B" clip-path="url(#A)"><path d="M5 797H617V5H5Z"/></clipPath><clipPath id="T" clip-path="url(#B)"><path d="M5 797H617V5H5Z"/></clipPath></defs><g stroke-linecap="butt"><g fill="#6a3f84" stroke-width="2.89" stroke="#6a3f84"><path fill="none" d="M360.75 76.08c-3.99 3.99-4 10.46-.03 14.47s10.44 4.01 14.43.03 4-10.46.03-14.47-10.44-4.01-14.43-.03Z" clip-path="url(#C)"/><path fill="none" stroke-width="1.44" stroke-miterlimit="4" d="M368.1 83.45H5" clip-path="url(#C)"/><path d="M257.6 78.19c-2.51 2.5-2.51 6.57-.02 9.08s6.55 2.52 9.06.02 2.52-6.57.02-9.08-6.56-2.52-9.06-.02" stroke="none" clip-path="url(#C)"/><path d="M244.46 79.52c-1.76 1.75-1.76 4.6-.01 6.35s4.59 1.76 6.34.01 1.76-4.6.01-6.36-4.59-1.76-6.34-.01" stroke="none" clip-path="url(#C)"/><path d="M235.17 80.87c-1 1-1.01 2.63-.01 3.63s2.62 1.01 3.62.01 1-2.63.01-3.63-2.62-1.01-3.62-.01" stroke="none" clip-path="url(#C)"/></g><g fill="#ffffff" stroke-width="1.44" stroke-miterlimit="4" stroke="none"><path d="M392.93 607.82c.32-1.16-.72-2.09-1.9-2.09H380.7c-1.18 0-2.4.94-2.71 2.09l-4.32 15.75c-.32 1.16.39 2.09 1.57 2.09H385.9c1.18 0 2.4-.94 2.71-2.09Zm-5.89 1.2c.25 0 .4.2.33.44l-3.42 12.48c-.07.24-.32.44-.57.44H379.5c-.25 0-.4-.2-.33-.44l3.42-12.48c.07-.24.32-.44.58-.44Z" clip-path="url(#C)"/><path d="M326.48 611.58l1.03-3.76c.32-1.16-.39-2.09-1.57-2.09H311.92l.55 2.38-4.24 15.47c-.32 1.15.39 2.09 1.57 2.09h12.82l1.01-3.7c.13-.46-.03-.88-.4-1.08l-4.07-1.26-.63 2.3c-.07.24-.32.44-.57.44h-4.34l3.52-12.83c.08-.29.38-.52.68-.52h4.26l-.11.42c-.13.46.03.88.4 1.08Z" clip-path="url(#C)"/><path d="M225.57 610.53l4.07 1.06 1.03-3.76c.32-1.16-.38-2.09-1.57-2.09H215.08l.55 2.38-4.24 15.47c-.32 1.16.38 2.09 1.57 2.09h12.82l2.96-10.81h-7.71l.75 3.28h1.01l-1.04 3.79c-.07.24-.33.44-.58.44h-4.41l3.52-12.83c.08-.29.38-.52.68-.52h4.32l-.12.42c-.13.46.03.88.4 1.08" clip-path="url(#C)"/><path d="M377.92 605.74h-4.68l-5.4 7.75-1.15-7.75h-4.68l1.98 12.58-2.01 7.34h5.05l2.02-7.35Z" clip-path="url(#D)"/><path d="M300.21 607.83c.32-1.15-.39-2.09-1.57-2.09H284.51l.71 3.29h9.02c.3 0 .47.23.39.52l-3.38 12.32c-.08.29-.38.52-.68.52h-3.97l3.44-12.53h-5.05l-4.34 15.82h12.53c1.18 0 2.4-.94 2.71-2.09Z" clip-path="url(#E)"/><path d="M256.21 625.66h5.18l.89-19.92h-8.94l.41 1.75-8.99 18.17h5.17l1.99-4.12h4.57Zm-2.63-7.57l3.94-9.04-.81 9.04Z" clip-path="url(#F)"/><path d="M335.08 625.66h5.17l.89-19.92H332.2l.41 1.75-8.99 18.17h5.17l1.99-4.12h4.57Zm-2.63-7.57l3.94-9.04-.81 9.04Z" clip-path="url(#F)"/><path d="M243.83 625.66l-.76-7.53c1.17-.01 2.37-.95 2.69-2.09l2.25-8.21c.32-1.15-.39-2.09-1.57-2.09H232.3l.71 3.29h9.03c.29 0 .47.23.39.52l-1.34 4.9c-.06.22-.3.4-.52.4h-4.09l1.37-4.99h-5.06l-4.34 15.82h5.05l2.07-7.54h2.21l.59 7.52Z" clip-path="url(#G)"/><path d="M278.54 605.74l-3.28 11.97-2.13-11.97h-6.28l.55 2.36-4.82 17.56h4.57l2.86-10.43 2.16 10.43h5.47l5.46-19.92Z" clip-path="url(#H)"/><path d="M356.88 605.74l-3.28 11.97-2.13-11.97h-6.28l.55 2.36-4.82 17.56h4.57l2.86-10.43 2.16 10.43h5.47l5.46-19.92Z" clip-path="url(#H)"/><path d="M406.12 605.74l-3.28 11.97-2.13-11.97h-6.28l.55 2.36-4.82 17.56h4.57l2.86-10.43 2.16 10.43h5.47l5.46-19.92Z" clip-path="url(#H)"/><path d="M253.5 640.8l-1.89-9.86 0-.02h-4.17l.34 1.47-3.63 13.23h2.93l2.37-8.63 1.93 8.6.01.02h3.73l4.03-14.69h-2.93Z" clip-path="url(#H)"/><path d="M358.39 632.39l-3.63 13.23h3.31l4.03-14.7h-4.05Z" clip-path="url(#H)"/><path d="M268.63 632.39L265 645.62h3.41l4.03-14.7h-4.15Z" clip-path="url(#H)"/><path d="M368.94 632.86l.01.02h3.56l-3.49 12.73h3.31l3.49-12.73h3.56l1.5-1.96H368.52Z" clip-path="url(#H)"/><path d="M300.54 632.4l-3.63 13.23h10.88l.7-2.56c.07-.24-.01-.46-.2-.57l-2.76-.85-.44 1.62c-.06.22-.29.39-.51.39h-3.84l1.19-4.35h2.87c.25 0 .52-.14.69-.37l1.29-1.72h-4.28l1.08-3.94c.06-.21.29-.39.51-.39h3.84l-.16.58c-.06.24.01.46.2.57l2.76.85 1.09-3.98H300.19Z" clip-path="url(#I)"/><path d="M394.34 630.91l-4.44 6.37-.95-6.37h-3.08l1.57 9.29-1.48 5.4h3.31l1.48-5.4 6.67-9.29Z" clip-path="url(#J)"/><path d="M232.23 643.28c-.06.21-.29.39-.51.39h-3.61l3.49-12.74h-4.05l.34 1.47-3.27 11.91c-.2.73.25 1.33.99 1.33h9.26l4.03-14.71h-3.3Z" clip-path="url(#K)"/><path d="M327.08 639.85c.74-.01 1.51-.6 1.7-1.33l1.72-6.28c.2-.73-.24-1.33-.99-1.33H319.13l.42 1.94 0 .02h6.73c.38 0 .61.3.5.67l-1.03 3.75c-.09.32-.43.58-.76.58H321.6l1.05-3.82h-3.31l-3.17 11.56h3.3l1.58-5.77h2.18l.45 5.73 0 .03h3.57l-.58-5.75Z" clip-path="url(#K)"/><path d="M339.04 632.24l-1.08 3.92c-.14.5.02.96.42 1.18l5.38 3.17c.22.12.31.38.23.65l-.49 1.8c-.1.37-.49.67-.87.67h-3.37l.16-.58c.07-.24-.01-.46-.2-.57l-2.76-.85-1.09 3.98h9.35c.75 0 1.52-.6 1.72-1.33l1.08-3.94c.14-.5-.02-.96-.42-1.18l-5.44-3.2c-.18-.1-.25-.31-.19-.54l.52-1.88c.1-.37.49-.67.87-.67h3.37l-.16.58c-.07.24.01.46.2.57l2.76.85 1.09-3.98h-9.35c-.75 0-1.52.6-1.72 1.33" clip-path="url(#K)"/><path d="M283.3 643.39l1.01-12.45 0-.03h-3.99l.57 1.46-.83 13.2 0 .03h5.24l7.08-14.65.02-.05h-3.28Z" clip-path="url(#L)"/><path d="M211.32 660.76H405.22v-.57H211.32Z" clip-path="url(#L)"/><path d="M373.34 564.5c2.06-2.07 2.82-4.26 2.82-4.26L360.92 558l6.65-9.53-3.62-.64c.41-4.1-.11-8.24-1.65-11.7l-.69-.13c1.89 9.09-.33 16.23-5.29 21.41-1.62-.27-6.65-1.24-12.89-3.74-.06 0 .91 4.6 4.24 6.41l6.65-.42.03.28c-6.17 5.91-36.58 23.77-61.51 10.36 0 0 1.02 4.7 4.61 6.63l6.17-.71.03.32c0 0-10.51 3.61-26.71 13.1l-1.78-2.8c0 0-11.15 6.93-17.6 13.93l.56.44c8.41-4.97 19.91-8.71 19.91-8.71l1.83 2.63.01.03c.25-.12 25.52-11.74 61.14-2.95l0-.01c.01 0 .01.01.02.01l.01 0c0 0 7.28-5.4 12.44-6.92-1.99 3.4-9.04 10.31-9.04 10.31l.71.35c0 0 13.76-8.16 19.48-16.7 0 0-4.76-1.63-12.84-1.57l2.93-3.4-5.61.14 1.14-.86 5.87-.9 1.15-1.34-5.66.14 1.14-.86 5.97-.91c4.96-4.25 9.27-4.73 12.07-5.07.81-.06 1.64-.1 2.52-.12.02 0 .04 0 .04 0l-.01 0c0 0 .01 0 .01 0m-90.6 28.18l-.13-.2c.19-.08.38-.15.51-.21 6.52-2.73 20.59-7.71 34.27-7.37-.15-.27-.68-1.6-.7-1.74 12.12.17 20.24 5.07 23.39 7.62-27.95-6.68-49.44-.88-57.33 1.89" clip-path="url(#M)"/><path d="M245.09 680.6h-3.01v3.77H240.5v-8.92h5.04v1.28h-3.46v2.64h3.01Z" clip-path="url(#N)"/><path d="M250.24 683.31h.94v1.06h-3.4v-1.06h.91v-6.8h-.91v-1.06h3.4v1.06h-.94Z" clip-path="url(#N)"/><path d="M258.99 684.37l-3.46-6.68v6.68h-1.47v-8.92h1.92l3.34 6.68v-6.68h1.46v8.92Z" clip-path="url(#N)"/><path d="M264.05 684.37v-8.92h1.88c3.43 0 4.67 1.42 4.67 4.35 0 3.12-1.26 4.57-4.69 4.57Zm2.09-1.29c1.96 0 2.83-.81 2.83-3.22 0-2.25-.77-3.13-2.79-3.13h-.55v6.35Z" clip-path="url(#O)"/><path d="M280.33 684.37h-1.57v-3.34l-2.98-5.58h1.76l1.99 4.05 2.08-4.05h1.65l-2.94 5.52Z" clip-path="url(#P)"/><path d="M284.94 679.94c0-2.95 1.47-4.64 3.83-4.64 2.38 0 3.5 1.65 3.5 4.48 0 3.02-1.23 4.74-3.71 4.74-2.46 0-3.62-1.65-3.62-4.58m5.7-.1c0-2.16-.58-3.26-1.93-3.26s-2.13 1.11-2.13 3.31.61 3.37 2.04 3.37c1.4 0 2.02-1.13 2.02-3.41" clip-path="url(#Q)"/><path d="M300.18 675.45h1.55v5.76c0 2.11-1.14 3.3-3.43 3.3-2.43 0-3.32-1.26-3.32-3.35v-5.71h1.55v5.33c0 1.64.46 2.46 1.82 2.46 1.35 0 1.81-.77 1.81-2.44Z" clip-path="url(#Q)"/><path d="M307.64 680.67h-.04-1.11v3.71h-1.58v-8.92h3.1c2.19 0 2.93 1.07 2.93 2.47 0 .98-.27 2.09-1.74 2.54l1.92 3.91h-1.7Zm-.17-1.2c1.23 0 1.86-.3 1.86-1.44 0-.89-.49-1.31-1.63-1.31h-1.2v2.76Z" clip-path="url(#Q)"/><path d="M318.88 684.37H317.3v-8.92h3.1c2.22 0 2.93 1.12 2.93 2.62 0 1.25-.45 3.01-3.34 3.01h-1.11Zm.95-4.48c1.26 0 1.88-.51 1.88-1.7 0-.96-.41-1.48-1.63-1.48h-1.2v3.18Z" clip-path="url(#Q)"/><path d="M331.11 675.45h1.55v5.76c0 2.11-1.14 3.3-3.43 3.3-2.43 0-3.32-1.26-3.32-3.35v-5.71h1.55v5.33c0 1.64.46 2.46 1.82 2.46 1.35 0 1.81-.77 1.81-2.44Z" clip-path="url(#Q)"/><path d="M338.57 680.67h-.04-1.11v3.71h-1.58v-8.92h3.1c2.19 0 2.93 1.07 2.93 2.47 0 .98-.27 2.09-1.74 2.54l1.92 3.91h-1.7Zm-.17-1.2c1.23 0 1.86-.3 1.86-1.44 0-.89-.49-1.31-1.63-1.31h-1.2v2.76Z" clip-path="url(#Q)"/><path d="M346.29 684.37h-1.58v-8.92h3.1c2.22 0 2.93 1.12 2.93 2.62 0 1.25-.45 3.01-3.34 3.01h-1.11Zm.95-4.48c1.26 0 1.88-.51 1.88-1.7 0-.96-.41-1.48-1.63-1.48h-1.2v3.18Z" clip-path="url(#Q)"/><path d="M352.95 679.94c0-2.95 1.47-4.64 3.83-4.64 2.38 0 3.5 1.65 3.5 4.48 0 3.02-1.23 4.74-3.71 4.74-2.46 0-3.62-1.65-3.62-4.58m5.7-.1c0-2.16-.58-3.26-1.93-3.26s-2.13 1.11-2.13 3.31.61 3.37 2.04 3.37c1.4 0 2.02-1.13 2.02-3.41" clip-path="url(#Q)"/><path d="M367.28 678.16c-.12-1.07-.62-1.62-1.57-1.62-.88 0-1.36.41-1.36 1.18 0 .86.72 1.13 1.58 1.35 1.31.33 2.98.6 2.98 2.61 0 1.81-1.35 2.83-3.16 2.83-2.02 0-3.15-.83-3.35-2.76l1.6-.23c.13 1.05.49 1.7 1.79 1.7 1.01 0 1.51-.51 1.51-1.29 0-.95-.83-1.21-1.76-1.44-1.3-.32-2.84-.64-2.84-2.61 0-1.62 1.28-2.6 3.09-2.6s2.84.92 3.05 2.61Z" clip-path="url(#Q)"/><path d="M376.28 680.42h-3.07v2.66h3.72v1.29h-5.3v-8.92h5.05v1.28h-3.48v2.44h3.07Z" clip-path="url(#R)"/><path d="M400.69 633.51c-.9 0-1.37-.57-1.37-1.32 0-.86.61-1.38 1.38-1.38.84 0 1.37.52 1.37 1.32s-.56 1.37-1.38 1.37m.01-2.37c-.58 0-1.02.38-1.02 1.05 0 .63.38 1 1.02 1s1.02-.39 1.02-1.03c0-.67-.43-1.02-1.02-1.02m.62 1.69h-.31l-.29-.53h-.19v.53h-.29v-1.36h.54c.37 0 .46.19.46.38 0 .19-.09.32-.25.38Zm-.7-.75c.18 0 .31-.02.31-.21 0-.16-.09-.18-.26-.18h-.14v.38Z" clip-path="url(#S)"/><path d="M5 797H23V5H5Z" clip-path="url(#T)"/><path d="M599 797h18V5H599Z" clip-path="url(#T)"/><path d="M617 5H5V23H617Z" clip-path="url(#T)"/><path d="M617 779H5v18H617Z" clip-path="url(#T)"/></g></g></svg>