<?xml version="1.0" encoding="UTF-8" standalone="no"?><svg xmlns="http://www.w3.org/2000/svg" xmlns:xlink="http://www.w3.org/1999/xlink" contentScriptType="text/ecmascript" fill="#000000" width="330" zoomAndPan="magnify" contentStyleType="text/css" viewBox="0.0 0.0 330.0 130.0" height="130" preserveAspectRatio="xMidYMid meet" version="1"><g id="change1_1"><circle fill="#ffffff" r="5" cx="5" cy="5"/></g><g id="change1_2"><circle fill="#ffffff" r="5" cx="45" cy="5"/></g><g id="change1_3"><circle fill="#ffffff" r="5" cx="85" cy="5"/></g><g id="change1_4"><circle fill="#ffffff" r="5" cx="125" cy="5"/></g><g id="change1_5"><circle fill="#ffffff" r="5" cx="165" cy="5"/></g><g id="change1_6"><circle fill="#ffffff" r="5" cx="205" cy="5"/></g><g id="change1_7"><circle fill="#ffffff" r="5" cx="245" cy="5"/></g><g id="change1_8"><circle fill="#ffffff" r="5" cx="285" cy="5"/></g><g id="change1_9"><circle fill="#ffffff" r="5" cx="325" cy="5"/></g><g id="change1_10"><circle fill="#ffffff" r="5" cx="5" cy="45"/></g><g id="change1_11"><circle fill="#ffffff" r="5" cx="45" cy="45"/></g><g id="change1_12"><circle fill="#ffffff" r="5" cx="85" cy="45"/></g><g id="change1_13"><circle fill="#ffffff" r="5" cx="125" cy="45"/></g><g id="change1_14"><circle fill="#ffffff" r="5" cx="165" cy="45"/></g><g id="change1_15"><circle fill="#ffffff" r="5" cx="205" cy="45"/></g><g id="change1_16"><circle fill="#ffffff" r="5" cx="245" cy="45"/></g><g id="change1_17"><circle fill="#ffffff" r="5" cx="285" cy="45"/></g><g id="change1_18"><circle fill="#ffffff" r="5" cx="325" cy="45"/></g><g id="change1_19"><circle fill="#ffffff" r="5" cx="5" cy="85"/></g><g id="change1_20"><circle fill="#ffffff" r="5" cx="45" cy="85"/></g><g id="change1_21"><circle fill="#ffffff" r="5" cx="85" cy="85"/></g><g id="change1_22"><circle fill="#ffffff" r="5" cx="125" cy="85"/></g><g id="change1_23"><circle fill="#ffffff" r="5" cx="165" cy="85"/></g><g id="change1_24"><circle fill="#ffffff" r="5" cx="205" cy="85"/></g><g id="change1_25"><circle fill="#ffffff" r="5" cx="245" cy="85"/></g><g id="change1_26"><circle fill="#ffffff" r="5" cx="285" cy="85"/></g><g id="change1_27"><circle fill="#ffffff" r="5" cx="325" cy="85"/></g><g id="change1_28"><circle fill="#ffffff" r="5" cx="5" cy="125"/></g><g id="change1_29"><circle fill="#ffffff" r="5" cx="45" cy="125"/></g><g id="change1_30"><circle fill="#ffffff" r="5" cx="85" cy="125"/></g><g id="change1_31"><circle fill="#ffffff" r="5" cx="125" cy="125"/></g><g id="change1_32"><circle fill="#ffffff" r="5" cx="165" cy="125"/></g><g id="change1_33"><circle fill="#ffffff" r="5" cx="205" cy="125"/></g><g id="change1_34"><circle fill="#ffffff" r="5" cx="245" cy="125"/></g><g id="change1_35"><circle fill="#ffffff" r="5" cx="285" cy="125"/></g><g id="change1_36"><circle fill="#ffffff" r="5" cx="325" cy="125"/></g></svg>